<svg height="511pt" viewBox="-30 1 511 511.99842" width="511pt" xmlns="http://www.w3.org/2000/svg"><path d="m451.753906 260.335938v182.238281c0 11.714843-9.371094 22.738281-26.035156 32.371093-5.582031 3.257813-11.378906 6.128907-17.355469 8.589844-5.378906 2.253906-11.195312 4.425782-17.355469 6.421875-5.46875 1.820313-11.195312 3.558594-17.355468 5.121094-5.554688 1.472656-11.28125 2.863281-17.355469 4.164063-5.554687 1.214843-11.371094 2.429687-17.355469 3.382812-5.640625 1.042969-11.371094 1.996094-17.359375 2.863281-5.640625.78125-11.453125 1.5625-17.355469 2.171875-5.640624.695313-11.453124 1.300782-17.355468 1.820313-5.640625.433593-11.453125.867187-17.355469 1.214843-5.726563.347657-11.453125.609376-17.355469.871094-5.726562.171875-11.542968.34375-17.355468.34375-2.863282.089844-5.816407.089844-8.679688.089844-124.613281 0-225.625-31.070312-225.625-69.425781v-182.238281zm0 0" fill="#2980ba"/><path d="m226.125 260.335938v251.664062c-124.613281 0-225.625-31.070312-225.625-69.425781v-182.238281zm0 0" fill="#3b97d3"/><path d="m451.753906 312.753906v19.957032c-67.949218 36.363281-178.851562 40.441406-225.628906 40.441406-46.773438 0-157.675781-4.078125-225.625-40.441406v-19.957032c44.082031 26.988282 127.824219 43.042969 225.625 43.042969s181.542969-16.054687 225.628906-43.042969zm0 0" fill="#2c3e50"/><path d="m451.753906 260.335938c0-38.339844-101.015625-69.421876-225.628906-69.421876-124.609375 0-225.625 31.082032-225.625 69.421876 0 38.34375 101.015625 69.425781 225.625 69.425781 124.613281 0 225.628906-31.082031 225.628906-69.425781zm0 0" fill="#285680"/><path d="m243.480469 234.304688h-34.710938c-4.792969 0-8.675781-3.886719-8.675781-8.679688s3.882812-8.675781 8.675781-8.675781h34.710938c4.792969 0 8.679687 3.882812 8.679687 8.675781s-3.886718 8.679688-8.679687 8.679688zm0 0" fill="#2c2f38"/><path d="m78.601562 269.015625h-34.710937c-4.792969 0-8.679687-3.886719-8.679687-8.679687 0-4.792969 3.886718-8.675782 8.679687-8.675782h34.710937c4.792969 0 8.675782 3.882813 8.675782 8.675782 0 4.792968-3.882813 8.679687-8.675782 8.679687zm0 0" fill="#2c2f38"/><path d="m408.363281 269.015625h-34.710937c-4.792969 0-8.679688-3.886719-8.679688-8.679687 0-4.792969 3.886719-8.675782 8.679688-8.675782h34.710937c4.792969 0 8.679688 3.882813 8.679688 8.675782 0 4.792968-3.886719 8.679687-8.679688 8.679687zm0 0" fill="#2c2f38"/><path d="m243.480469 303.726562h-34.710938c-4.792969 0-8.675781-3.882812-8.675781-8.675781s3.882812-8.679687 8.675781-8.679687h34.710938c4.792969 0 8.679687 3.886718 8.679687 8.679687s-3.886718 8.675781-8.679687 8.675781zm0 0" fill="#2c2f38"/><g fill="#2c3e50"><path d="m425.71875 434.070312v40.875c-5.582031 3.257813-11.378906 6.128907-17.355469 8.589844v-49.464844c0-4.792968 3.886719-8.679687 8.679688-8.679687s8.675781 3.886719 8.675781 8.679687zm0 0"/><path d="m391.007812 453.335938v36.621093c-5.46875 1.820313-11.195312 3.558594-17.355468 5.121094v-41.742187c0-4.792969 3.882812-8.679688 8.675781-8.679688s8.679687 3.886719 8.679687 8.679688zm0 0"/><path d="m356.296875 462.96875v36.273438c-5.554687 1.214843-11.371094 2.429687-17.355469 3.382812v-39.65625c0-4.792969 3.882813-8.679688 8.675782-8.679688 4.792968 0 8.679687 3.886719 8.679687 8.679688zm0 0"/><path d="m321.582031 472.6875v32.800781c-5.640625.78125-11.453125 1.5625-17.355469 2.171875v-34.972656c0-4.792969 3.886719-8.679688 8.679688-8.679688s8.675781 3.886719 8.675781 8.679688zm0 0"/><path d="m286.871094 482.320312v27.160157c-5.640625.433593-11.453125.867187-17.355469 1.214843v-28.375c0-4.792968 3.886719-8.679687 8.679687-8.679687 4.792969 0 8.675782 3.886719 8.675782 8.679687zm0 0"/><path d="m252.160156 482.320312v29.246094c-5.726562.171875-11.542968.34375-17.355468.34375v-29.589844c0-4.792968 3.886718-8.679687 8.675781-8.679687 4.792969 0 8.679687 3.886719 8.679687 8.679687zm0 0"/></g><path d="m338.941406 67.625c-2.417968.003906-4.722656-1.003906-6.363281-2.777344-27.128906-30.226562-65.832031-47.496094-106.453125-47.496094-40.617188 0-79.320312 17.269532-106.453125 47.496094-2.089844 2.351563-5.285156 3.386719-8.355469 2.710938-3.070312-.679688-5.535156-2.964844-6.441406-5.976563s-.109375-6.277343 2.078125-8.535156c30.414063-33.765625 73.726563-53.046875 119.171875-53.046875s88.757812 19.28125 119.175781 53.046875c2.34375 2.53125 2.96875 6.207031 1.589844 9.371094-1.378906 3.160156-4.5 5.207031-7.949219 5.207031zm0 0" fill="#ff5364"/><path d="m308.855469 97.613281c-2.414063.003907-4.722657-1.003906-6.359375-2.777343-19.457032-21.695313-47.226563-34.09375-76.371094-34.09375-29.140625 0-56.910156 12.398437-76.367188 34.09375-3.285156 3.390624-8.675781 3.535156-12.136718.324218-3.460938-3.210937-3.71875-8.597656-.582032-12.125 22.738282-25.238281 55.117188-39.644531 89.085938-39.644531 33.972656 0 66.347656 14.40625 89.089844 39.644531 2.347656 2.527344 2.972656 6.207032 1.589844 9.371094-1.378907 3.160156-4.5 5.207031-7.949219 5.207031zm0 0" fill="#ff5364"/><path d="m278.773438 130.167969c-2.414063.003906-4.71875-1.003907-6.359376-2.777344-11.785156-13.160156-28.621093-20.683594-46.289062-20.683594s-34.5 7.523438-46.285156 20.683594c-2.09375 2.335937-5.285156 3.363281-8.347656 2.683594-3.0625-.679688-5.519532-2.960938-6.425782-5.960938-.90625-3.003906-.125-6.261719 2.050782-8.523437 15.070312-16.703125 36.511718-26.234375 59.007812-26.234375s43.941406 9.53125 59.011719 26.234375c2.347656 2.527344 2.96875 6.207031 1.589843 9.371094-1.378906 3.164062-4.5 5.207031-7.953124 5.207031zm0 0" fill="#ff5364"/><path d="m248.6875 157.578125c-2.414062.003906-4.71875-1.003906-6.359375-2.777344-4.191406-4.492187-10.058594-7.042969-16.203125-7.042969s-12.011719 2.550782-16.203125 7.042969c-2.089844 2.351563-5.285156 3.386719-8.355469 2.710938-3.070312-.679688-5.535156-2.964844-6.441406-5.976563-.90625-3.011718-.109375-6.277344 2.078125-8.535156 7.394531-8.167969 17.902344-12.832031 28.921875-12.832031s21.527344 4.664062 28.925781 12.832031c2.34375 2.53125 2.96875 6.207031 1.589844 9.371094-1.378906 3.164062-4.5 5.207031-7.953125 5.207031zm0 0" fill="#ff5364"/></svg>